<svg width="1440" height="645" viewBox="0 0 1440 645" fill="none" xmlns="http://www.w3.org/2000/svg">
<rect width="1440" height="645" fill="white"/>
<g clip-path="url(#clip0_8_8)">
<path d="M0 458L120 445.5C240 433 480 408 720 415.5C960 423 1200 463 1440 483C1680 503 1920 503 2160 483C2400 463 2640 423 2880 403C3120 383 3360 383 3600 385.5C3840 388 4080 393 4320 398C4560 403 4800 408 5040 425.5C5280 443 5520 473 5760 490.5C6000 508 6240 513 6480 508C6720 503 6960 488 7200 468C7440 448 7680 423 7920 425.5C8160 428 8400 458 8640 475.5C8880 493 9120 498 9360 488C9600 478 9840 453 10080 435.5C10320 418 10560 408 10800 408C11040 408 11280 418 11520 415.5C11760 413 12000 398 12240 413C12480 428 12720 473 12960 480.5C13200 488 13440 458 13680 453C13920 448 14160 468 14400 480.5C14640 493 14880 498 15120 493C15360 488 15600 473 15840 468C16080 463 16320 468 16560 470.5C16800 473 17040 473 17160 473H17280V533H17160C17040 533 16800 533 16560 533C16320 533 16080 533 15840 533C15600 533 15360 533 15120 533C14880 533 14640 533 14400 533C14160 533 13920 533 13680 533C13440 533 13200 533 12960 533C12720 533 12480 533 12240 533C12000 533 11760 533 11520 533C11280 533 11040 533 10800 533C10560 533 10320 533 10080 533C9840 533 9600 533 9360 533C9120 533 8880 533 8640 533C8400 533 8160 533 7920 533C7680 533 7440 533 7200 533C6960 533 6720 533 6480 533C6240 533 6000 533 5760 533C5520 533 5280 533 5040 533C4800 533 4560 533 4320 533C4080 533 3840 533 3600 533C3360 533 3120 533 2880 533C2640 533 2400 533 2160 533C1920 533 1680 533 1440 533C1200 533 960 533 720 533C480 533 240 533 120 533H0V458Z" fill="url(#paint0_linear_8_8)"/>
</g>
<rect y="500" width="1440" height="145" fill="#E95270"/>
<defs>
<linearGradient id="paint0_linear_8_8" x1="0" y1="533" x2="0" y2="384.365" gradientUnits="userSpaceOnUse">
<stop stop-color="#E95270"/>
<stop offset="1" stop-color="#E95270"/>
</linearGradient>
<clipPath id="clip0_8_8">
<rect width="1440" height="150" fill="white" transform="translate(0 383)"/>
</clipPath>
</defs>
</svg>
