<?xml version="1.0" encoding="UTF-8"?>
<svg xmlns="http://www.w3.org/2000/svg" xmlns:xlink="http://www.w3.org/1999/xlink"   viewBox="0 0 192 192" version="1.1">
<g>
<path style=" stroke:none;fill-rule:nonzero;fill-opacity:1;" fill="#000000" d="M 107.542969 19.058594 L 107.542969 172.882812 C 107.542969 179.257812 102.367188 184.433594 95.992188 184.433594 C 89.617188 184.433594 84.441406 179.257812 84.441406 172.882812 L 84.441406 19.058594 C 84.441406 12.683594 89.617188 7.507812 95.992188 7.507812 C 102.367188 7.507812 107.542969 12.683594 107.542969 19.058594 Z M 107.542969 19.058594 "/>
<path style=" stroke:none;fill-rule:nonzero;fill-opacity:1;" fill="#000000" d="M 165.742188 120.007812 L 104.691406 181.058594 C 100.117188 185.632812 92.617188 185.632812 88.042969 181.058594 C 83.46875 176.484375 83.46875 168.984375 88.042969 164.410156 L 149.09375 103.359375 C 153.667969 98.785156 161.167969 98.785156 165.742188 103.359375 C 170.316406 108.007812 170.316406 115.433594 165.742188 120.007812 Z M 165.742188 120.007812 "/>
<path style=" stroke:none;fill-rule:nonzero;fill-opacity:1;" fill="#000000" d="M 26.242188 119.78125 L 87.292969 180.832031 C 91.867188 185.40625 99.367188 185.40625 103.941406 180.832031 C 108.515625 176.257812 108.515625 168.757812 103.941406 164.183594 L 42.890625 103.132812 C 38.316406 98.558594 30.816406 98.558594 26.242188 103.132812 C 21.667969 107.707031 21.667969 115.207031 26.242188 119.78125 Z M 26.242188 119.78125 "/>
</g>
</svg>
