<?xml version="1.0" encoding="UTF-8" standalone="no"?>
<!-- Created with Inkscape (http://www.inkscape.org/) -->

<svg
   version="1.1"
   id="svg1"
   width="1290"
   height="170"
   viewBox="0 0 1290 170"
   sodipodi:docname="footer.svg"
   inkscape:version="1.3 (0e150ed6c4, 2023-07-21)"
   inkscape:export-filename="footer.png"
   inkscape:dexport-xdpi="96"
   inkscape:export-ydpi="96"
   xmlns:inkscape="http://www.inkscape.org/namespaces/inkscape"
   xmlns:sodipodi="http://sodipodi.sourceforge.net/DTD/sodipodi-0.dtd"
   xmlns="http://www.w3.org/2000/svg"
   xmlns:svg="http://www.w3.org/2000/svg">
  <defs
     id="defs1" />
  <sodipodi:namedview
     id="namedview1"
     pagecolor="#ffffff"
     bordercolor="#000000"
     borderopacity="0.25"
     inkscape:showpageshadow="2"
     inkscape:pageopacity="0.0"
     inkscape:pagecheckerboard="0"
     inkscape:deskcolor="#d1d1d1"
     showgrid="false"
     inkscape:zoom="1.5472868"
     inkscape:cx="644.67686"
     inkscape:cy="136.69088"
     inkscape:window-width="2560"
     inkscape:window-height="1371"
     inkscape:window-x="0"
     inkscape:window-y="0"
     inkscape:window-maximized="1"
     inkscape:current-layer="g1" />
  <g
     inkscape:groupmode="layer"
     inkscape:label="Image"
     id="g1">
    <path
       style="fill:#e95270;fill-opacity:1;stroke-width:4.13369"
       d="M 0,86.836331 V 4.0208564 l 3.3930361,0.427319 C 12.644925,5.6133585 22.01185,6.0426156 39.334642,6.0952679 c 10.437034,0.031723 19.235629,0.2178752 19.552434,0.4136712 0.316805,0.195796 10.681474,0.6275549 23.03259,0.9594641 12.351123,0.3319092 28.564054,0.9266896 36.028734,1.321734 7.46468,0.3950445 20.26127,0.789474 28.43687,0.8765101 8.1756,0.087036 24.02593,0.5299307 35.22295,0.9842097 11.19702,0.454278 27.33817,0.887614 35.86923,0.962967 8.53107,0.07535 22.05474,0.335405 30.05261,0.577893 7.99787,0.242487 37.22645,0.663697 64.9524,0.936021 27.72596,0.272324 56.95454,0.629137 64.95241,0.792917 35.46625,0.726276 218.10478,-0.472277 270.1503,-1.772843 9.77518,-0.244272 28.24299,-0.480735 41.03958,-0.525474 12.79659,-0.04474 41.73434,-0.437202 64.30611,-0.872143 51.57719,-0.9938531 129.0835,-0.9880997 167.06663,0.0124 15.99575,0.421339 34.02731,0.818214 40.07015,0.881944 6.04283,0.06373 19.13026,0.458439 29.08316,0.877131 9.95291,0.418692 21.0662,0.875074 24.6963,1.014182 3.6299,0.139108 6.8448,0.40422 7.144,0.589139 0.2992,0.184919 8.2353,0.522357 17.6359,0.749862 9.4006,0.227506 17.9644,0.657593 19.0308,0.955751 1.0664,0.298157 6.883,0.723719 12.9259,0.945692 6.0428,0.221974 12.6769,0.698472 14.7424,1.058885 2.0656,0.360413 7.1551,0.763491 11.3101,0.895729 4.1551,0.132237 10.7538,0.605394 14.6639,1.051458 3.9101,0.446064 9.145,0.87343 11.6333,0.949701 5.0611,0.155138 30.8906,2.061286 34.8998,2.575506 1.4218,0.182369 6.6568,0.604671 11.6332,0.938449 4.9765,0.333778 11.811,0.930468 15.1879,1.325978 3.3769,0.395512 8.1756,0.8233 10.6638,0.950643 5.9475,0.304381 31.8204,2.64714 45.8868,4.154987 3.9101,0.419141 8.5634,0.840409 10.3407,0.936152 8.4838,0.457019 22.4647,1.831763 26.8211,2.637323 2.666,0.492969 5.4289,0.861451 6.1398,0.818851 0.7109,-0.0426 2.2378,-0.02561 3.393,0.03777 L 1290,35.222946 V 102.43737 169.6518 H 645 0 Z M 260.45591,63.982966 c 0,-0.718103 -0.75401,-0.969439 -2.90831,-0.969439 -4.45901,0 -3.69798,1.778401 0.80786,1.887855 1.45888,0.03544 2.10045,-0.245086 2.10045,-0.918416 z"
       id="path1" />
    <path
       style="fill:#e95270"
       id="path2"
       d="m 254.91131,65.440235 c 3.01055,0.910139 5.74152,2.523912 8.49238,4.011668 2.50454,1.01989 4.76747,2.525612 7.2301,3.647208 4.86356,2.366461 11.65394,7.078965 -11.41488,-7.919277 -0.0288,-0.01872 -1.12404,-6.1e-4 -1.20999,-0.01019 -0.22874,-0.02551 -0.44958,-0.09884 -0.67437,-0.148255 -4.59641,-2.143537 -10.9728,-6.195091 11.10051,6.380913 0.15889,0.09053 -0.33903,-0.147067 -0.48364,-0.259007 -0.32531,-0.251812 -0.39123,-0.455076 -0.57377,-0.796744 -0.17898,-0.973376 1.20309,-1.446308 1.88905,-1.880434 0.96976,-0.598984 1.73569,-1.455183 2.59684,-2.191597 0,0 -12.69918,-7.899658 -12.69918,-7.899658 v 0 c -0.79516,0.709825 -1.56447,1.459794 -2.49514,1.995483 -1.30934,0.854057 -2.6663,1.763864 -2.80449,3.461417 0.0252,0.412533 0.18076,1.891257 0.59002,2.140439 4.44288,2.705081 9.27327,7.422556 14.93377,7.931702 8.61886,-0.496488 -5.16869,-7.666629 -10.41908,-10.101305 -2.38094,-1.195284 -4.6856,-2.538996 -7.11298,-3.643145 -2.81765,-1.503734 -5.69159,-2.888256 -8.6931,-3.990379 z" />
  </g>
</svg>