<svg width="1440" height="474" viewBox="0 0 1440 474" fill="none" xmlns="http://www.w3.org/2000/svg">
<g clip-path="url(#clip0_1_10)">
<path d="M0 89.2L26.7 90.694C53.3 92.26 107 95.14 160 94.906C213.3 94.6 267 91 320 89.506C373.3 87.94 427 88.66 480 89.506C533.3 90.46 587 91.54 640 90.406C693.3 89.2 747 85.6 800 86.194C853.3 86.86 907 91.54 960 94.294C1013.3 96.94 1067 97.66 1120 97.3C1173.3 96.94 1227 95.86 1280 93.394C1333.3 91 1387 87.4 1440 87.994C1493.3 88.66 1547 93.34 1600 94.006C1653.3 94.6 1707 91 1760 88.894C1813.3 86.86 1867 86.14 1920 85.294C1973.3 84.34 2027 83.26 2080 85.294C2133.3 87.4 2187 92.8 2240 94.6C2293.3 96.4 2347 94.6 2400 93.7C2453.3 92.8 2507 92.8 2560 91C2613.3 89.2 2667 85.6 2720 85.6C2773.3 85.6 2827 89.2 2880 89.506C2933.3 89.74 2987 86.86 3040 86.5C3093.3 86.14 3147 88.66 3200 91C3253.3 93.34 3307 95.86 3360 95.806C3413.3 95.86 3467 93.34 3520 93.394C3573.3 93.34 3627 95.86 3680 94.906C3733.3 94.06 3787 89.74 3813 87.706L3840 85.6V100H3813.3C3786.7 100 3733 100 3680 100C3626.7 100 3573 100 3520 100C3466.7 100 3413 100 3360 100C3306.7 100 3253 100 3200 100C3146.7 100 3093 100 3040 100C2986.7 100 2933 100 2880 100C2826.7 100 2773 100 2720 100C2666.7 100 2613 100 2560 100C2506.7 100 2453 100 2400 100C2346.7 100 2293 100 2240 100C2186.7 100 2133 100 2080 100C2026.7 100 1973 100 1920 100C1866.7 100 1813 100 1760 100C1706.7 100 1653 100 1600 100C1546.7 100 1493 100 1440 100C1386.7 100 1333 100 1280 100C1226.7 100 1173 100 1120 100C1066.7 100 1013 100 960 100C906.7 100 853 100 800 100C746.7 100 693 100 640 100C586.7 100 533 100 480 100C426.7 100 373 100 320 100C266.7 100 213 100 160 100C106.7 100 53 100 27 100H0V89.2Z" fill="url(#paint0_linear_1_10)"/>
</g>
<g clip-path="url(#clip1_1_10)">
<path d="M1440 431.6L1413.3 429.442C1386.7 427.18 1333 423.02 1280 423.358C1226.7 423.8 1173 429 1120 431.158C1066.7 433.42 1013 432.38 960 431.158C906.7 429.78 853 428.22 800 429.858C746.7 431.6 693 436.8 640 435.942C586.7 434.98 533 428.22 480 424.242C426.7 420.42 373 419.38 320 419.9C266.7 420.42 213 421.98 160 425.542C106.7 429 53 434.2 0 433.342C-53.3 432.38 -107 425.62 -160 424.658C-213.3 423.8 -267 429 -320 432.042C-373.3 434.98 -427 436.02 -480 437.242C-533.3 438.62 -587 440.18 -640 437.242C-693.3 434.2 -747 426.4 -800 423.8C-853.3 421.2 -907 423.8 -960 425.1C-1013.3 426.4 -1067 426.4 -1120 429C-1173.3 431.6 -1227 436.8 -1280 436.8C-1333.3 436.8 -1387 431.6 -1440 431.158C-1493.3 430.82 -1547 434.98 -1600 435.5C-1653.3 436.02 -1707 432.38 -1760 429C-1813.3 425.62 -1867 421.98 -1920 422.058C-1973.3 421.98 -2027 425.62 -2080 425.542C-2133.3 425.62 -2187 421.98 -2240 423.358C-2293.3 424.58 -2347 430.82 -2373 433.758L-2400 436.8V416H-2373.3C-2346.7 416 -2293 416 -2240 416C-2186.7 416 -2133 416 -2080 416C-2026.7 416 -1973 416 -1920 416C-1866.7 416 -1813 416 -1760 416C-1706.7 416 -1653 416 -1600 416C-1546.7 416 -1493 416 -1440 416C-1386.7 416 -1333 416 -1280 416C-1226.7 416 -1173 416 -1120 416C-1066.7 416 -1013 416 -960 416C-906.7 416 -853 416 -800 416C-746.7 416 -693 416 -640 416C-586.7 416 -533 416 -480 416C-426.7 416 -373 416 -320 416C-266.7 416 -213 416 -160 416C-106.7 416 -53 416 0 416C53.3 416 107 416 160 416C213.3 416 267 416 320 416C373.3 416 427 416 480 416C533.3 416 587 416 640 416C693.3 416 747 416 800 416C853.3 416 907 416 960 416C1013.3 416 1067 416 1120 416C1173.3 416 1227 416 1280 416C1333.3 416 1387 416 1413 416H1440V431.6Z" fill="url(#paint1_linear_1_10)"/>
<rect x="1088" y="418.08" width="8" height="1.82" transform="rotate(-180 1088 418.08)" fill="#D9D9D9"/>
</g>
<rect y="97" width="1440" height="324" fill="#FBE3E8"/>
<defs>
<linearGradient id="paint0_linear_1_10" x1="0" y1="100" x2="0" y2="84.139" gradientUnits="userSpaceOnUse">
<stop offset="0.9999" stop-color="#FBE3E8"/>
<stop offset="1" stop-color="#E95270"/>
</linearGradient>
<linearGradient id="paint1_linear_1_10" x1="1440" y1="416" x2="1440" y2="438.91" gradientUnits="userSpaceOnUse">
<stop offset="0.9999" stop-color="#FBE3E8"/>
<stop offset="1" stop-color="#E95270"/>
</linearGradient>
<clipPath id="clip0_1_10">
<rect width="1440" height="18" fill="white" transform="translate(0 82)"/>
</clipPath>
<clipPath id="clip1_1_10">
<rect width="1440" height="26" fill="white" transform="matrix(-1 0 0 -1 1440 442)"/>
</clipPath>
</defs>
</svg>
