<svg width="1440" height="474" viewBox="0 0 1440 474" fill="none" xmlns="http://www.w3.org/2000/svg">
<rect width="1711" height="1155" fill="white"/>
<g clip-path="url(#clip0_8_8)">
<path d="M0 24L71.2917 34C142.583 44 285.167 64 427.75 64C570.333 64 712.917 44 855.5 37.3C998.083 31 1140.67 37 1283.25 37.3C1425.83 37 1568.42 31 1711 37.3C1853.58 44 1996.17 64 2138.75 70.7C2281.33 77 2423.92 71 2566.5 70.7C2709.08 71 2851.67 77 2994.25 72.3C3136.83 67 3279.42 51 3422 52.3C3564.58 54 3707.17 74 3849.75 85.7C3992.33 97 4134.92 101 4277.5 99C4420.08 97 4562.67 91 4705.25 84C4847.83 77 4990.42 71 5133 72.3C5275.58 74 5418.17 84 5560.75 89C5703.33 94 5845.92 94 5988.5 97.3C6131.08 101 6273.67 107 6416.25 110.7C6558.83 114 6701.42 114 6844 102.3C6986.58 91 7129.17 67 7271.75 60.7C7414.33 54 7556.92 64 7699.5 60.7C7842.08 57 7984.67 41 8127.25 47.3C8269.83 54 8412.42 84 8555 90.7C8697.58 97 8840.17 81 8982.75 77.3C9125.33 74 9267.92 84 9410.5 77.3C9553.08 71 9695.67 47 9838.25 44C9980.83 41 10123.4 57 10194.7 65.7L10266 74V124H10194.7C10123.4 124 9980.83 124 9838.25 124C9695.67 124 9553.08 124 9410.5 124C9267.92 124 9125.33 124 8982.75 124C8840.17 124 8697.58 124 8555 124C8412.42 124 8269.83 124 8127.25 124C7984.67 124 7842.08 124 7699.5 124C7556.92 124 7414.33 124 7271.75 124C7129.17 124 6986.58 124 6844 124C6701.42 124 6558.83 124 6416.25 124C6273.67 124 6131.08 124 5988.5 124C5845.92 124 5703.33 124 5560.75 124C5418.17 124 5275.58 124 5133 124C4990.42 124 4847.83 124 4705.25 124C4562.67 124 4420.08 124 4277.5 124C4134.92 124 3992.33 124 3849.75 124C3707.17 124 3564.58 124 3422 124C3279.42 124 3136.83 124 2994.25 124C2851.67 124 2709.08 124 2566.5 124C2423.92 124 2281.33 124 2138.75 124C1996.17 124 1853.58 124 1711 124C1568.42 124 1425.83 124 1283.25 124C1140.67 124 998.083 124 855.5 124C712.917 124 570.333 124 427.75 124C285.167 124 142.583 124 71.2917 124H0V24Z" fill="url(#paint0_linear_8_8)"/>
</g>
<rect y="98" width="1711" height="413" fill="#E95270"/>
<defs>
<linearGradient id="paint0_linear_8_8" x1="0" y1="124" x2="0" y2="24" gradientUnits="userSpaceOnUse">
<stop stop-color="#E95270"/>
<stop offset="1" stop-color="#E95270"/>
</linearGradient>
<clipPath id="clip0_8_8">
<rect width="1711" height="100" fill="white" transform="translate(0 24)"/>
</clipPath>
</defs>
</svg>
