<!--?xml version="1.0" encoding="utf-8"?-->
<!-- Svg Vector Icons : http://www.onlinewebfonts.com/icon -->

<svg version="1.1" xmlns="http://www.w3.org/2000/svg" xmlns:xlink="http://www.w3.org/1999/xlink" x="0px" y="0px" viewBox="0 0 256 256" enable-background="new 0 0 256 256" xml:space="preserve">
<metadata> Svg Vector Icons : http://www.onlinewebfonts.com/icon </metadata>
<g><g><path fill="#FFFFFF" data-title="Layer 0" xs="0" d="M25.4,112.6h205.1c8.5,0,15.4,6.9,15.4,15.4c0,8.5-6.9,15.4-15.4,15.4H25.4c-8.5,0-15.4-6.9-15.4-15.4C10,119.5,16.9,112.6,25.4,112.6z"/><path fill="#FFFFFF" data-title="Layer 1" xs="1" d="M160,35l81.4,81.4c6.1,6.1,6.1,16.1,0,22.2c-6.1,6.1-16.1,6.1-22.2,0l-81.4-81.4c-6.1-6.1-6.1-16.1,0-22.2C144,28.9,153.9,28.9,160,35z"/><path fill="#fffFfF" data-title="Layer 2" xs="2" d="M159.7,221l81.4-81.4c6.1-6.1,6.1-16.1,0-22.2c-6.1-6.1-16.1-6.1-22.2,0l-81.4,81.4c-6.1,6.1-6.1,16.1,0,22.2C143.6,227.1,153.6,227.1,159.7,221z"/></g></g>
</svg>